PathFileType  4	(X/Y/Z) C:\Users\antoi\Documents\MyRepositories\mobilecap\ResultsAnalysis
DataRate	CameraRate	NumFrames	NumMarkers	Units	OrigDataRate	OrigDataStartFrame	OrigNumFrames
100.0	100.0	5	51	mm	100.0	217	289
Frame#	Time	r_knee			r_shank_antsup			r_ankle			r_calc			r_5meta			r_toe			L_knee			L_shank_antsup			L_ankle			L_calc			L_5meta			L_toe			r_sh2			r_sh3			r_sh4			L_sh2			L_sh3			r_thigh1			r_thigh2			r_thigh3			r_thigh4			r_thigh5			L_thigh1			L_thigh2			L_thigh3			L_thigh4			r.ASIS			r.PSIS			L.ASIS			L.PSIS			C7			R_Shoulder			L_Shoulder			R_Sternum			L_Sternum			R_humerus			R_elbow_med			R_elbow_lat			R_forearm			R_wrist_radius			R_wrist_ulna			L_humerus			L_elbow_med			L_elbow_lat			L_forearm			L_wrist_radius			L_wrist_ulna			R_HJC			L_HJC			R_HJC_reg			L_HJC_reg			
		X1	Y1	Z1	X2	Y2	Z2	X3	Y3	Z3	X4	Y4	Z4	X5	Y5	Z5	X6	Y6	Z6	X7	Y7	Z7	X8	Y8	Z8	X9	Y9	Z9	X10	Y10	Z10	X11	Y11	Z11	X12	Y12	Z12	X13	Y13	Z13	X14	Y14	Z14	X15	Y15	Z15	X16	Y16	Z16	X17	Y17	Z17	X18	Y18	Z18	X19	Y19	Z19	X20	Y20	Z20	X21	Y21	Z21	X22	Y22	Z22	X23	Y23	Z23	X24	Y24	Z24	X25	Y25	Z25	X26	Y26	Z26	X27	Y27	Z27	X28	Y28	Z28	X29	Y29	Z29	X30	Y30	Z30	X31	Y31	Z31	X32	Y32	Z32	X33	Y33	Z33	X34	Y34	Z34	X35	Y35	Z35	X36	Y36	Z36	X37	Y37	Z37	X38	Y38	Z38	X39	Y39	Z39	X40	Y40	Z40	X41	Y41	Z41	X42	Y42	Z42	X43	Y43	Z43	X44	Y44	Z44	X45	Y45	Z45	X46	Y46	Z46	X47	Y47	Z47	X48	Y48	Z48	X49	Y49	Z49	X50	Y50	Z50	X51	Y51	Z51	

217	2.16000000	-80.77253	476.55345	-434.25751	-75.50664	395.93627	-413.05378	-294.30400	108.75109	-417.91603	-367.82858	57.97907	-468.26463	-176.34957	38.27595	-371.51518	-134.70655	57.69632	-429.74579	-105.60956	482.33941	-757.73525	-114.91645	369.20951	-776.38041	-307.85409	107.16127	-736.90674	-381.79891	60.31210	-686.38284	-181.83283	32.08094	-799.69309	-146.52444	55.44581	-739.46198	-130.68010	296.95237	-403.98109	-140.47112	434.24055	-397.58535	-204.45466	337.53884	-392.08074	-190.42584	418.46025	-776.37960	-244.11027	310.16005	-771.88014	-189.79534	768.55076	-384.94899	-120.42186	684.62573	-403.28526	-146.41597	627.16314	-380.09739	-276.42304	695.02276	-389.68620	-196.64380	608.27142	-393.60889	-222.68712	780.52516	-762.29592	-133.69098	672.82769	-767.99760	-313.33619	704.96881	-743.90595	-220.42305	603.56081	-764.13648	-224.52277	896.32385	-438.43680	-406.88085	979.44054	-501.74981	-245.60974	897.50487	-695.15259	-415.99896	978.61340	-605.83990	-258.97305	1462.30254	-582.76241	-183.26850	1453.74729	-435.32879	-195.35190	1435.38349	-725.54558	-113.48211	1370.61953	-554.10468	-117.77725	1370.24577	-610.32766	-65.24394	1401.52057	-223.28863	25.42875	1309.85414	-199.20987	-2.96451	1388.21782	-157.02214	67.84127	1471.61660	-273.32233	103.30956	1511.53943	-365.23465	136.15063	1519.91528	-334.41977	-144.19033	1322.77460	-944.48915	-86.64814	1201.04328	-982.71965	-112.32892	1276.65648	-1018.41018	15.01031	1375.70119	-950.77255	64.84319	1428.04863	-888.51482	90.66955	1419.16696	-915.54770	-324.54994	839.10457	-437.34992	-340.33470	839.21946	-667.17643	-315.69687	842.35618	-466.64103	-330.53145	841.01099	-635.99136	
218	2.17000000	-86.98324	482.86525	-432.77991	-81.18874	402.07817	-411.58306	-294.24238	109.78967	-417.35016	-367.54772	59.04426	-468.43983	-176.34516	38.23480	-371.52225	-134.53616	57.54484	-429.59646	-112.15320	489.32773	-757.55736	-120.30658	374.95257	-776.62846	-307.47517	108.44050	-737.12030	-381.42941	62.23118	-686.45658	-181.70582	31.96835	-799.67816	-146.37752	55.40780	-739.50619	-134.06293	301.65408	-402.65124	-146.79273	438.53298	-396.15314	-208.65527	340.59850	-391.24174	-196.72964	422.67125	-776.35422	-248.04596	313.36751	-771.77888	-184.51757	780.46748	-385.10166	-119.20632	692.94772	-402.44994	-147.25587	637.38506	-379.19594	-274.32152	710.21849	-389.83212	-198.28457	620.48581	-392.32828	-217.55213	792.91248	-762.88417	-133.10639	681.53008	-768.70466	-311.17702	721.19183	-743.90025	-222.66788	615.93025	-764.23330	-216.67889	914.66917	-438.93123	-399.87753	996.21906	-501.70994	-238.34945	915.89556	-695.81041	-409.22011	995.70740	-605.62850	-263.16187	1482.37989	-581.73947	-187.50185	1481.30868	-438.47380	-197.81117	1463.74464	-722.89948	-114.93126	1394.60848	-553.78674	-119.92435	1394.07526	-608.56929	-69.50608	1445.95732	-224.41760	27.84860	1363.26955	-195.71154	-7.14115	1440.25374	-157.31168	58.17895	1525.69152	-275.32421	92.78535	1565.69975	-368.69695	123.79680	1577.55261	-337.03587	-145.60458	1364.18332	-946.05207	-77.64438	1250.52289	-991.88682	-110.96358	1325.28629	-1022.32927	7.56954	1431.95129	-950.76753	52.97521	1484.85755	-885.93808	79.21017	1480.08520	-913.40494	-316.19745	856.56865	-437.71936	-332.59805	856.89316	-667.50268	-307.41066	859.51325	-467.16953	-322.64496	858.68047	-636.62869	
219	2.18000000	-95.24004	490.80954	-430.62038	-88.56464	409.49842	-410.01367	-294.19450	110.99197	-417.22441	-367.12306	60.78271	-468.48804	-176.28602	38.21708	-371.54303	-134.36615	57.34480	-429.48749	-120.34368	497.60530	-757.58843	-127.03453	381.72375	-776.71647	-307.03914	110.03340	-737.52048	-380.80021	64.50047	-686.52278	-181.64774	31.93635	-799.65806	-146.24752	55.35701	-739.50559	-138.54894	307.43395	-401.23301	-155.26353	444.06044	-394.67785	-214.18779	344.25684	-390.51287	-204.50709	427.64333	-776.21100	-253.02023	317.00934	-771.34412	-179.63448	793.85532	-385.04006	-118.68303	703.30047	-401.61121	-149.07372	649.22254	-378.07734	-272.52127	727.45599	-389.76240	-200.84589	634.42866	-391.10710	-212.77176	806.40505	-763.24090	-133.46712	691.21706	-769.33545	-309.29353	739.16513	-744.09699	-225.92976	629.74713	-764.31941	-208.13699	934.72867	-439.43788	-392.27518	1014.76922	-501.75145	-230.55033	935.87898	-696.95016	-401.83525	1014.33262	-605.37306	-267.52548	1504.01122	-580.63337	-192.50380	1511.22332	-441.86916	-200.60701	1494.01211	-719.26076	-116.34530	1420.62681	-552.98981	-122.07378	1419.73754	-606.17273	-75.51286	1490.09235	-226.67783	25.93182	1415.20020	-194.35794	-14.20139	1490.38474	-158.40923	47.04631	1577.84739	-277.86247	81.60633	1617.86053	-373.11093	109.91446	1633.03597	-339.41472	-148.22809	1407.57147	-946.10577	-73.20486	1301.54144	-998.91497	-112.29123	1375.06001	-1024.64802	-1.50561	1486.86184	-949.08077	40.51178	1539.10655	-882.12827	66.66529	1538.05428	-910.14244	-307.11411	875.75399	-438.17796	-324.33501	876.17027	-667.90126	-298.58816	878.49724	-467.64699	-314.26152	877.78040	-637.52628	
220	2.19000000	-105.55124	500.25296	-428.47783	-97.98674	418.21200	-408.86184	-293.94029	112.66585	-417.24102	-366.48331	63.33039	-468.39511	-176.12736	38.20658	-371.55650	-134.14513	57.15233	-429.40440	-130.51974	507.17417	-757.25006	-135.20851	389.83190	-776.66194	-306.46619	111.96558	-737.90129	-379.87790	67.45695	-686.55072	-181.59454	31.97528	-799.64880	-146.17071	55.33726	-739.50908	-144.30619	314.48584	-399.93954	-165.97389	450.50490	-393.20224	-221.28300	348.71575	-389.35382	-214.07971	433.51068	-775.93963	-259.08201	321.31608	-770.77506	-175.14831	808.78051	-384.99837	-118.90820	715.35518	-401.14836	-151.77829	662.76096	-377.10593	-271.12013	746.90783	-389.62625	-204.41047	650.48900	-389.88193	-208.27806	821.01217	-763.22361	-135.49459	701.99482	-769.61644	-307.79888	758.88446	-744.05861	-230.46424	645.06475	-763.96016	-198.77452	956.44701	-440.24199	-383.91416	1035.13486	-501.88704	-222.16246	957.57972	-698.41431	-393.85585	1034.46487	-605.23425	-272.10395	1527.30491	-579.24333	-198.55187	1542.14409	-445.76304	-204.49803	1525.51085	-714.40492	-117.38150	1449.07549	-551.63821	-123.44818	1448.22765	-604.48415	-82.91098	1534.02342	-229.92033	20.27975	1464.74435	-193.66126	-23.89922	1538.26155	-159.59964	35.11775	1627.50266	-280.28646	70.23166	1667.01861	-376.17481	95.46785	1684.91689	-340.55168	-151.53204	1452.97153	-944.69285	-73.49793	1352.81501	-1003.46130	-116.13999	1425.54740	-1025.63434	-11.41050	1539.88695	-945.76230	28.29635	1590.69740	-877.43367	54.07470	1592.56411	-906.06313	-297.18604	896.64207	-438.83977	-315.47202	897.10823	-668.48024	-289.00039	899.60656	-468.12282	-305.38410	898.50118	-638.42490	
221	2.20000000	-118.10941	511.12913	-427.30823	-109.83431	428.49195	-408.10287	-293.26224	115.41816	-416.93383	-365.40743	67.27091	-468.11807	-175.88008	38.20179	-371.59835	-133.80937	56.87756	-429.43817	-143.10318	518.16915	-756.09925	-145.23056	399.70464	-776.33630	-305.56906	114.50750	-738.14706	-378.63919	71.71781	-686.74084	-181.49206	31.99322	-799.63804	-146.10288	55.38951	-739.50871	-151.74182	323.15936	-398.99183	-178.81131	458.02483	-391.72684	-230.06900	354.34599	-388.05320	-225.71603	440.58594	-775.21983	-266.39356	326.82628	-770.14178	-170.93440	825.58982	-385.48998	-120.04726	728.99083	-401.15315	-155.48542	678.36191	-376.42138	-270.14422	768.85998	-389.68516	-209.00752	669.02936	-388.75983	-204.06783	836.84889	-763.20740	-139.22384	714.04452	-769.73305	-306.80199	780.50643	-743.40425	-236.35180	662.27058	-763.23995	-188.54712	979.95610	-441.31077	-374.74200	1057.15187	-502.07592	-213.26756	980.98040	-699.73708	-385.19158	1056.26801	-605.29867	-276.73626	1552.19499	-577.68499	-205.66119	1573.19643	-450.32331	-209.67832	1557.71696	-709.08508	-118.69320	1479.74833	-550.23477	-124.67567	1478.85569	-603.36361	-91.77230	1577.26603	-234.03321	11.60100	1511.12966	-192.38521	-35.83057	1583.67842	-160.55383	22.77462	1673.88174	-282.13392	59.00840	1713.28129	-376.87813	81.64350	1732.81975	-340.18796	-155.64179	1499.80886	-942.14256	-78.63805	1403.52961	-1006.70151	-122.48154	1476.56446	-1025.74154	-21.63372	1590.57640	-941.15623	16.89961	1639.32827	-871.57132	42.23755	1643.33604	-900.48816	-286.41882	919.31040	-439.55278	-305.93969	919.68991	-669.09153	-278.51840	922.47671	-468.72293	-295.77419	921.01781	-639.18675	
